<svg width="443" height="443" viewBox="0 0 443 443" fill="none" xmlns="http://www.w3.org/2000/svg">
<path d="M221.5 0L246.725 62.2333L289.947 10.841L294.707 77.8234L351.694 42.3027L335.522 107.478L400.697 91.3056L365.177 148.293L432.159 153.053L380.767 196.275L443 221.5L380.767 246.725L432.159 289.947L365.177 294.707L400.697 351.694L335.522 335.522L351.694 400.697L294.707 365.177L289.947 432.159L246.725 380.767L221.5 443L196.275 380.767L153.053 432.159L148.293 365.177L91.3056 400.697L107.478 335.522L42.3027 351.694L77.8234 294.707L10.841 289.947L62.2333 246.725L0 221.5L62.2333 196.275L10.841 153.053L77.8234 148.293L42.3027 91.3056L107.478 107.478L91.3056 42.3027L148.293 77.8234L153.053 10.841L196.275 62.2333L221.5 0Z" fill="#C0FF52"/>
</svg>
