<svg width="512" height="512" viewBox="0 0 512 512" fill="none" xmlns="http://www.w3.org/2000/svg">
<rect width="512" height="512" fill="#B9B9B9"/>
<path d="M369.146 142.822C358.636 141.56 349.388 149.133 348.127 159.651L338.038 245.06C337.617 248.005 335.095 250.529 331.732 250.109H331.311C327.948 250.109 325.426 247.163 325.846 243.798L330.891 132.724C331.311 122.206 323.324 113.371 312.814 112.95C302.305 112.529 293.477 120.523 293.056 131.041L288.012 242.115C288.012 245.481 285.069 248.005 281.706 247.584C278.763 247.584 276.241 245.06 276.241 242.115L267.833 113.371C266.992 102.852 258.164 94.8583 247.654 95.6998C237.145 96.5413 229.158 105.377 229.998 115.895L237.986 239.59C238.406 242.956 235.463 245.901 231.68 245.901H229.578C226.635 245.901 224.533 243.798 224.113 240.853L206.457 139.456C204.775 128.938 194.686 122.206 184.597 123.889C174.087 125.572 167.361 135.669 169.042 145.767C169.042 145.767 184.176 228.231 186.278 245.901C188.38 263.572 189.641 273.67 190.482 289.237C190.902 298.072 183.335 303.962 174.928 295.127C174.928 295.127 158.533 274.932 149.284 265.676C139.615 255.999 129.946 252.633 119.857 258.944C109.347 265.255 106.825 279.139 113.551 289.237C113.551 289.237 154.749 356.554 180.393 384.743C191.323 396.944 206.036 409.987 222.011 409.987C254.801 409.987 273.718 409.987 306.509 409.987C349.388 409.987 359.477 367.914 365.363 324.578C371.248 281.664 386.382 163.858 386.382 163.858C387.223 153.761 379.656 144.084 369.146 142.822Z" fill="#C0FF52"/>
<rect x="240.825" y="386.733" width="51.525" height="125.267" fill="#C0FF52"/>
</svg>
