<svg width="512" height="512" viewBox="0 0 512 512" fill="none" xmlns="http://www.w3.org/2000/svg">
<rect width="512" height="512" fill="#B9B9B9"/>
<path d="M404.465 89.9031C390.888 88.2725 378.941 98.0561 377.311 111.644L364.277 221.981C363.734 225.785 360.476 229.046 356.131 228.503H355.588C351.244 228.503 347.985 224.698 348.528 220.35L355.045 76.8584C355.588 63.2702 345.27 51.8561 331.693 51.3126C318.116 50.7691 306.711 61.0961 306.168 74.6843L299.651 218.176C299.651 222.524 295.849 225.785 291.505 225.242C287.703 225.242 284.444 221.981 284.444 218.176L273.583 51.8561C272.497 38.2679 261.092 27.9409 247.515 29.0279C233.938 30.115 223.619 41.5291 224.706 55.1173L235.024 214.915C235.567 219.263 231.766 223.068 226.878 223.068H224.162C220.361 223.068 217.646 220.35 217.102 216.545L194.293 85.5549C192.121 71.9667 179.087 63.2702 166.053 65.4443C152.476 67.6185 143.786 80.6631 145.959 93.7078C145.959 93.7078 165.51 200.239 168.225 223.068C170.941 245.896 172.57 258.941 173.656 279.051C174.199 290.465 164.424 298.075 153.562 286.661C153.562 286.661 132.382 260.571 120.434 248.614C107.943 236.112 95.4522 231.764 82.4183 239.917C68.8412 248.07 65.5827 266.006 74.272 279.051C74.272 279.051 127.494 366.016 160.622 402.432C174.742 418.194 193.75 435.044 214.387 435.044C256.747 435.044 281.186 435.044 323.546 435.044C378.941 435.044 391.975 380.691 399.578 324.708C407.181 269.268 426.732 117.08 426.732 117.08C427.818 104.035 418.043 91.5337 404.465 89.9031Z" fill="#C0FF52"/>
<rect x="238.692" y="405.003" width="66.5633" height="106.997" fill="#C0FF52"/>
</svg>
